<?xml version="1.0" encoding="utf-8"?>
<!-- Generator: Adobe Illustrator 16.0.0, SVG Export Plug-In . SVG Version: 6.00 Build 0)  -->
<!DOCTYPE svg PUBLIC "-//W3C//DTD SVG 1.1//EN" "http://www.w3.org/Graphics/SVG/1.1/DTD/svg11.dtd">
<svg version="1.1" id="Layer_1" xmlns="http://www.w3.org/2000/svg" xmlns:xlink="http://www.w3.org/1999/xlink" x="0px" y="0px"
	 width="500px" height="500px" viewBox="0 0 500 500" enable-background="new 0 0 500 500" xml:space="preserve">
<circle fill-rule="evenodd" clip-rule="evenodd" fill="#383133" cx="250" cy="250" r="250"/>
<circle fill-rule="evenodd" clip-rule="evenodd" fill="#2D282A" cx="250" cy="250" r="225"/>
<circle fill-rule="evenodd" clip-rule="evenodd" fill="#231F20" cx="250" cy="250" r="200"/>
<g>
	<g>
		<path fill-rule="evenodd" clip-rule="evenodd" fill="#FFFFFF" d="M337.06,174.638c-0.972-1.069-1.943-2.139-2.916-3.208
			c-0.738-1.955,1.224-3.563,1.75-4.375v-0.583c0.194-0.097,0.389-0.194,0.584-0.292c-0.098-0.486-0.195-0.973-0.293-1.458
			c-1.381-0.005-2.37,0.037-3.208,0.583c-0.194,0.292-0.389,0.583-0.583,0.875h-0.584v0.292c-0.291,0.194-0.583,0.389-0.875,0.583
			c-0.193,0.292-0.389,0.583-0.583,0.875h-0.583c-0.195,0.292-0.389,0.583-0.584,0.875c-0.951,0.935-2.191,1.776-2.916,2.917
			c-0.195,0.583-0.389,1.167-0.584,1.75h-0.291v0.583h-0.292v0.875h-0.292l-0.583,2.917h-0.292c-0.029,2.279,0.19,3.744,1.459,4.667
			h0.583c0.486,0.583,0.973,1.167,1.458,1.75c-0.021,2.528-0.543,3.352-2.041,4.375h-0.584c-0.291,0.389-0.583,0.778-0.875,1.167
			c-0.291,0.195-0.583,0.389-0.875,0.583v0.583h-0.291v1.167h-0.292v2.042h-0.292c-0.423,1.494,0.274,2.856-0.583,3.792
			c-0.218,0.89-0.558,1.253-1.458,1.458c-0.331,0.327,0.002,0.124-0.584,0.292c-0.25-0.296-0.501-0.411-0.875-0.583
			c-0.097-0.583-0.194-1.167-0.291-1.75h-0.292v-4.083h-0.292c-0.097-2.139-0.194-4.278-0.291-6.417h0.291v-2.625h0.292v-6.708
			h0.292v-4.667h0.291c0.098-1.847,0.195-3.695,0.292-5.542h-0.292v-9.917c-0.485-1.75-0.973-3.5-1.458-5.25h-0.292v-0.583h-0.291
			v-0.875h-0.292v-0.583h-0.292v-0.875h-0.291v-0.875h-0.292v-0.875h-0.292v-2.333h-0.291v-3.5
			c-1.037-3.695,0.159-10.028-1.167-13.417h-0.292v-0.583h-0.291v-0.875h-0.292v-0.583h-0.292v-0.583l-0.583-0.292v-0.583h-0.292
			v-0.583h-0.291v-0.583h-0.292v-0.583h-0.292v-0.583l-0.583-0.292c-0.194-0.583-0.389-1.167-0.583-1.75h-0.292
			c-0.097-0.292-0.194-0.583-0.292-0.875l-0.583-0.292c-0.097-0.389-0.194-0.778-0.292-1.167l-0.583-0.292v-0.583h-0.292v-0.583
			c-0.194-0.097-0.389-0.194-0.583-0.292v-0.583c-0.486-0.389-0.973-0.778-1.458-1.167v-0.583c-0.389-0.292-0.778-0.583-1.167-0.875
			c-0.097-0.194-0.194-0.389-0.292-0.583h-0.583c-0.39-0.486-0.778-0.973-1.167-1.458h-0.583c-0.097-0.194-0.194-0.389-0.292-0.583
			l-1.166-0.292c-0.098-0.194-0.195-0.389-0.292-0.583h-0.875v-0.292c-0.39-0.097-0.778-0.194-1.167-0.292v-0.292h-0.875v-0.292
			h-0.584v-0.292c-0.582-0.097-1.166-0.195-1.75-0.292v-0.292h-0.875v-0.292h-0.875v-0.292h-0.875v-0.292h-0.875v-0.292h-0.875
			v-0.292c-1.749-0.292-3.5-0.583-5.25-0.875v-0.292h-0.875v-0.292h-0.875v-0.292h-0.875v-0.292
			c-1.264-0.194-2.527-0.389-3.791-0.583v-0.292c-1.556-0.097-3.111-0.194-4.667-0.292v-0.292c-0.694-0.257-3.227-1.105-4.083-0.875
			v0.292h-1.459v0.292h-1.166v0.292h-2.625v0.292h-3.5c-1.745,0.52-5.865,2.863-8.459,2.042v-0.292h-0.875v-0.292
			c-0.786-0.307-1.671-0.176-2.334-0.583l-0.292-0.583h-0.583c-0.097-0.194-0.194-0.389-0.292-0.583h-0.583
			c-0.097-0.194-0.194-0.389-0.292-0.583c-0.389-0.097-0.778-0.194-1.167-0.292v-0.292h-4.083v0.292l-7.292,0.292v-0.292h-2.917
			c-0.928-0.277-3.929-1.547-5.25-1.167v0.292h-1.167v0.292h-0.875v0.292h-0.583v0.292c-0.875,0.194-1.75,0.389-2.625,0.583v0.292
			H220.1c-1.384,0.466-3.19,1.019-4.667,1.458c-0.972,0.097-1.945,0.194-2.917,0.292v0.292h-0.875v0.292
			c-0.486,0.097-0.972,0.194-1.458,0.292v0.292H209.6v0.292h-0.875v0.292h-0.583v0.292l-2.625,0.583v0.292
			c-0.583,0.097-1.167,0.194-1.75,0.292v0.292c-0.486,0.097-0.972,0.195-1.458,0.292v0.292c-0.389,0.097-0.778,0.194-1.167,0.292
			v0.292h-0.583v0.292c-0.292,0.097-0.583,0.194-0.875,0.292c-0.097,0.194-0.194,0.389-0.292,0.583h-0.583
			c-0.194,0.292-0.389,0.583-0.583,0.875h-0.292v0.583c-0.292,0.194-0.583,0.389-0.875,0.583c-0.681,1.556-1.361,3.111-2.042,4.667
			c-0.194,0.097-0.389,0.194-0.583,0.292c-0.097,0.389-0.194,0.778-0.292,1.167c-0.194,0.097-0.389,0.194-0.583,0.292
			c-0.097,0.389-0.194,0.778-0.292,1.167h-0.292c-0.097,0.389-0.194,0.778-0.292,1.167h-0.292v0.875h-0.292v0.583h-0.292v0.875
			h-0.292v0.583h-0.292v0.583h-0.292c-0.194,0.583-0.389,1.167-0.583,1.75h-0.292c-0.097,0.583-0.194,1.167-0.292,1.75h-0.292v1.458
			h-0.292c-0.097,1.167-0.194,2.333-0.292,3.5h-0.292v3.5h-0.292v4.958c-0.446,1.571-0.712,3.719-1.167,5.25v1.75
			c-0.68,2.042-1.361,4.083-2.042,6.125c0.194,1.556,0.389,3.111,0.583,4.667h0.292c0.097,1.264,0.194,2.528,0.292,3.792h0.292
			v1.458h0.292v1.458h0.292v1.458h0.292c0.097,0.389,0.194,0.778,0.292,1.167c0.583,0.176,0.251-0.04,0.583,0.292
			c2.572-0.063,4.065-0.97,5.833-1.75c0.875-0.292,1.75-0.583,2.625-0.875c0.097-0.194,0.194-0.389,0.292-0.583
			c0.583-0.194,1.167-0.389,1.75-0.583l0.292-0.583h0.583v-0.292h0.875v-0.292h0.583v-0.292h1.458v-0.292
			c1.944,0.097,3.89,0.195,5.833,0.292v0.292c2.236,0.097,4.473,0.194,6.708,0.292c3.694,0.681,7.39,1.361,11.083,2.042v0.292
			c0.389,0.097,0.778,0.194,1.167,0.292v0.292h0.583c0.194,0.292,0.389,0.583,0.583,0.875h0.583
			c0.292,0.389,0.583,0.778,0.875,1.167c0.194,0.097,0.389,0.195,0.583,0.292v0.583c0.292,0.194,0.583,0.389,0.875,0.583v0.583
			c0.195,0.098,0.389,0.195,0.583,0.292c0.097,0.389,0.194,0.778,0.292,1.167h0.292v0.583h0.292v0.583h0.292v0.583h0.292v0.583
			h0.292v0.583c0.194,0.097,0.389,0.194,0.583,0.292v0.583c0.389,0.292,0.778,0.583,1.167,0.875v0.583
			c0.389,0.292,0.778,0.583,1.167,0.875v0.583c0.194,0.097,0.389,0.195,0.583,0.292v0.583h0.292
			c0.097,0.292,0.194,0.583,0.292,0.875c0.292,0.194,0.583,0.389,0.875,0.583c0.097,0.389,0.194,0.778,0.292,1.167
			c0.194,0.097,0.389,0.195,0.583,0.292v0.583h0.292v0.583h0.292v0.875h0.292v0.583h0.292v1.167c0.366,1.123,0.629,2.686-0.292,3.5
			c-0.218,0.824-0.352,0.72-0.875,1.167v0.292c-0.893,0.639-5.321,2.452-7.292,1.75v-0.292h-0.583v-0.292
			c-0.389-0.097-0.778-0.194-1.167-0.292c-0.097-0.194-0.194-0.389-0.292-0.583c-0.829-0.512-1.612-0.543-2.917-0.583l-2.042,1.75
			c-0.194,0.292-0.389,0.583-0.583,0.875h-0.583c-0.292,0.389-0.583,0.778-0.875,1.167h-0.583v0.292
			c-0.389,0.097-0.778,0.195-1.167,0.292v0.292h-0.875v0.292h-2.917v-0.292H216.6v-0.292c-0.875-0.292-1.75-0.583-2.625-0.875
			v-0.292h-0.583v-0.292c-1.08-0.385-3.29,0.273-3.792,0.583c-0.097,0.194-0.194,0.389-0.292,0.583
			c-0.71,0.432-3.838,1.32-5.25,0.875v-0.292c-0.583-0.097-1.167-0.194-1.75-0.292v-0.292c-0.583-0.194-1.167-0.389-1.75-0.583
			v-0.292h-0.583v-0.292c-0.875-0.292-1.75-0.583-2.625-0.875c-0.097-0.194-0.194-0.389-0.292-0.583h-0.583v-0.292
			c-0.292-0.194-0.583-0.389-0.875-0.583c-0.186-0.858-0.926-1.752-0.583-2.917h0.292v-0.875h0.292
			c0.098-0.389,0.194-0.778,0.292-1.167l0.583-0.292c0.292-0.389,0.583-0.778,0.875-1.167h0.583v-0.292h0.583v-0.292h0.583v-0.292
			h0.583v-0.292h0.583v-0.292h0.583v-0.292h0.875v-0.292h0.583v-0.292h0.875v-0.292h0.583v-0.292
			c0.583-0.097,1.167-0.194,1.75-0.292v-0.292c0.681-0.097,1.361-0.194,2.042-0.292c2.452-0.921,6.735-1.514,8.458,0.583
			c2.382-0.279,1.513-2.009,2.625-3.208v-1.75h-0.292c-0.292-0.389-0.583-0.778-0.875-1.167h-0.583
			c-0.097-0.194-0.194-0.389-0.292-0.583h-0.583v-0.292c-0.583-0.194-1.167-0.389-1.75-0.583v-0.292h-0.875v-0.292h-0.875v-0.292
			c-0.821-0.277-6.433-0.623-7.583-0.292v0.292h-1.458v0.292h-1.167v0.292c-0.389,0.097-0.778,0.194-1.167,0.292v0.292h-0.583
			c-0.194,0.292-0.389,0.583-0.583,0.875h-0.583c-0.389,0.486-0.778,0.973-1.167,1.458h-0.583c-0.098,0.194-0.194,0.389-0.292,0.583
			h-0.292c-0.486,0.583-0.972,1.167-1.458,1.75h-0.583c-0.194,0.292-0.389,0.583-0.583,0.875c-1.847,0.68-3.695,1.361-5.542,2.042
			c-0.097,0.292-0.194,0.583-0.292,0.875h-0.292v0.875h-0.292c-0.097,1.069-0.194,2.139-0.292,3.208
			c-0.595,2.021-0.88,4.696-1.458,6.708v2.333h-0.292v2.917h-0.292v3.792h-0.292v5.25h0.292v2.625h0.292v2.333h0.292v2.042h0.292
			c0.097,1.069,0.194,2.14,0.292,3.208h0.292v1.167h0.292l0.292,2.042h0.292c0.292,1.458,0.583,2.916,0.875,4.375h0.292v0.875h0.292
			v0.875h0.292v1.166h0.292v0.875h0.292v1.167h0.292c0.097,0.583,0.194,1.167,0.292,1.75h0.292c0.194,0.583,0.389,1.167,0.583,1.75
			h0.292v0.583h0.292v0.584h0.292v0.875h0.292c0.097,0.486,0.194,0.973,0.292,1.459h0.292v0.582h0.292v0.875h0.292
			c0.097,0.389,0.194,0.778,0.292,1.168h0.292c0.194,0.875,0.389,1.75,0.583,2.625h0.292c0.098,0.485,0.194,0.972,0.292,1.457h0.292
			v0.584h0.292v0.875h0.292v0.584h0.292l0.292,1.166h0.292v0.584h0.292v0.583h0.292v0.583h0.292v0.584h0.292l0.292,1.166h0.292
			v0.584h0.292v0.583h0.292v0.583h0.292v0.584h0.292v0.583h0.292v0.583c0.195,0.098,0.389,0.195,0.583,0.292v0.583h0.292v0.584
			h0.292v0.583h0.292v0.583h0.292v0.584h0.292v0.583h0.292v0.583h0.292v0.584h0.292l0.292,1.166h0.292
			c0.097,0.389,0.194,0.778,0.292,1.167h0.292v0.583h0.292v0.584h0.292v0.583h0.292v0.583c0.194,0.098,0.389,0.195,0.583,0.292
			c0.097,0.389,0.194,0.778,0.292,1.167c0.292,0.194,0.583,0.389,0.875,0.583v0.583c0.195,0.098,0.389,0.195,0.583,0.292v0.583
			c0.292,0.195,0.583,0.389,0.875,0.584v0.583c0.292,0.194,0.583,0.389,0.875,0.583v0.584c0.486,0.389,0.972,0.777,1.458,1.166
			v0.584c0.486,0.389,0.972,0.777,1.458,1.166c1.458,1.557,2.917,3.111,4.375,4.667v0.583c0.194,0.098,0.389,0.195,0.583,0.292
			v0.583c0.194,0.098,0.389,0.195,0.583,0.292c0.097,0.39,0.194,0.778,0.292,1.167c0.194,0.098,0.389,0.194,0.583,0.291
			c0.292,0.875,0.583,1.75,0.875,2.625v2.043h-0.292c0.097,2.235,0.194,4.472,0.292,6.708h0.292
			c0.292,0.797,0.178,1.673,0.583,2.333c0.194,0.098,0.389,0.195,0.583,0.292v0.583c0.194,0.098,0.389,0.195,0.583,0.292v0.583
			c0.292,0.195,0.583,0.389,0.875,0.584v0.583c0.292,0.194,0.583,0.389,0.875,0.583v0.584c0.486,0.389,0.973,0.777,1.458,1.166
			v0.584c0.194,0.097,0.389,0.194,0.583,0.291c0.389,0.486,0.778,0.973,1.167,1.459c5.734,4.065,21.226,7.177,30.918,4.375h2.042
			v-0.292h2.916v-0.292c3.208-0.097,6.417-0.194,9.625-0.291c1.167-0.389,2.334-0.778,3.5-1.167
			c0.098-0.194,0.195-0.389,0.292-0.583c0.389-0.098,0.778-0.195,1.167-0.292c0.194-0.292,0.389-0.583,0.583-0.875
			c0.292-0.097,0.583-0.194,0.875-0.292v-0.291h0.583c0.098-0.195,0.195-0.389,0.292-0.584c0.711-0.473,1.501-0.547,2.042-1.166
			c1.048-0.006,1.658,0.036,2.333,0.291c-0.055,2.408-1.399,4-2.625,5.25c-0.292,0.195-0.583,0.389-0.875,0.584v0.583
			c-0.194,0.097-0.389,0.194-0.583,0.292c-0.292,0.389-0.584,0.777-0.875,1.166c-0.389,0.292-0.778,0.584-1.167,0.875v0.584
			c-0.485,0.389-0.972,0.777-1.458,1.166c-1.717,2.379-3.8,4.092-5.834,6.125l-3.791,4.084h-0.584
			c-0.389,0.486-0.777,0.973-1.166,1.458h-0.584c-0.389,0.486-0.777,0.973-1.166,1.458c-0.292,0.098-0.584,0.195-0.875,0.293
			c-0.098,0.193-0.195,0.389-0.292,0.582h-0.583c-0.098,0.195-0.195,0.389-0.292,0.584h-0.583c-0.098,0.194-0.195,0.389-0.292,0.584
			h-0.583v0.291h-0.584v0.291h-0.875v0.293h-0.583v0.291h-0.875v0.291h-0.875v0.293h-0.875v0.291h-1.167v0.291
			c-0.959,0.307-7.163,0.656-8.459,0.293v-0.293h-2.042v-0.291h-1.167v-0.291c-0.68-0.098-1.361-0.195-2.042-0.293v-0.291h-0.583
			v-0.291h-0.875v-0.293h-0.583v-0.291h-0.583c-0.097-0.195-0.194-0.389-0.292-0.584c-0.389-0.097-0.778-0.193-1.167-0.291
			c-0.097-0.195-0.194-0.389-0.292-0.584h-0.583v-0.291h-0.583c-0.195-0.291-0.389-0.584-0.583-0.875h-0.583
			c-0.194-0.292-0.389-0.584-0.583-0.875c-0.681-0.584-1.361-1.167-2.042-1.75v-0.584c-0.292-0.193-0.583-0.389-0.875-0.583v-0.583
			c-0.292-0.195-0.583-0.389-0.875-0.584v-0.583c-1.458-1.36-2.917-2.722-4.375-4.083v-0.584c-0.194-0.097-0.389-0.194-0.583-0.291
			v-0.584h-0.292v-0.583h-0.292v-0.583H223.6v-0.584c-0.194-0.097-0.389-0.194-0.583-0.291c-0.194-0.584-0.389-1.167-0.583-1.75
			c-0.194-0.098-0.389-0.195-0.583-0.292v-0.583c-0.194-0.098-0.389-0.195-0.583-0.292v-0.583c-0.194-0.098-0.389-0.195-0.583-0.292
			v-0.583c-0.194-0.098-0.389-0.195-0.583-0.292v-0.583h-0.292c-0.098-0.292-0.194-0.584-0.292-0.875
			c-0.194-0.098-0.389-0.195-0.583-0.292v-0.583c-2.042-2.334-4.083-4.668-6.125-7h-0.583c-0.194-0.292-0.389-0.584-0.583-0.875
			c-0.681-0.584-1.361-1.167-2.042-1.75v-0.584c-0.389-0.291-0.778-0.583-1.167-0.875v-0.583c-0.292-0.194-0.583-0.39-0.875-0.583
			v-0.584c-0.194-0.098-0.389-0.194-0.583-0.291v-0.584c-0.195-0.098-0.389-0.194-0.583-0.291c-0.097-0.293-0.194-0.584-0.292-0.875
			h-0.292c-0.194-0.584-0.389-1.168-0.583-1.75c-0.195-0.098-0.389-0.195-0.583-0.293l-0.292-1.166
			c-0.195-0.098-0.389-0.194-0.583-0.291v-0.584c-0.389-0.291-0.778-0.584-1.167-0.875v-0.584c-0.292-0.193-0.583-0.389-0.875-0.582
			v-0.584c-0.194-0.098-0.389-0.195-0.583-0.291v-0.584c-0.194-0.098-0.389-0.195-0.583-0.291c-0.097-0.293-0.194-0.584-0.292-0.875
			h-0.292c-0.097-0.39-0.194-0.779-0.292-1.168c-0.194-0.097-0.389-0.193-0.583-0.291v-0.584c-0.194-0.097-0.389-0.193-0.583-0.291
			v-0.584h-0.292c-0.194-0.291-0.389-0.583-0.583-0.875h-1.167v0.292c-0.926,0.983-0.122,3.855,0.292,5.251v1.75h0.292v1.75h0.292
			v1.457h0.292v1.459h0.292v2.041h0.292v1.751h0.292v0.583h0.292l0.292,1.459c0.195,0.097,0.389,0.193,0.583,0.291v0.584h0.292
			c0.583,1.749,1.167,3.5,1.75,5.25h0.292v0.583h0.292v0.583c0.194,0.098,0.389,0.195,0.583,0.292
			c0.097,0.389,0.194,0.778,0.292,1.167h0.292c0.097,0.291,0.194,0.583,0.292,0.875c0.194,0.097,0.389,0.194,0.583,0.291v0.584
			c0.292,0.194,0.583,0.389,0.875,0.583v0.583c0.292,0.195,0.583,0.389,0.875,0.584v0.583c0.486,0.389,0.972,0.778,1.458,1.167
			v0.583h0.292c0.292,0.389,0.583,0.778,0.875,1.167c0.486,0.389,0.972,0.777,1.458,1.166v0.584
			c0.292,0.194,0.583,0.389,0.875,0.583v0.583c0.292,0.195,0.583,0.389,0.875,0.584v0.583c0.583,0.485,1.167,0.973,1.75,1.458v0.584
			c1.847,1.75,3.694,3.5,5.542,5.25v0.583c1.944,1.847,3.889,3.694,5.833,5.542v0.584h0.292v0.582h0.292v0.584h0.292v0.584h0.292
			v0.582h0.292v0.584h0.292v0.584h0.292c0.194,0.582,0.389,1.166,0.583,1.75h0.292v0.875h0.292v0.582h0.292
			c1.069,4.473,2.139,8.945,3.208,13.418c0.59,2.037-0.376,4.846,0.292,6.707h0.292v0.875h0.292c0.194,0.584,0.389,1.168,0.583,1.75
			h0.292v0.584h0.292v0.584h0.292v0.582h0.292c0.097,0.391,0.194,0.779,0.292,1.168h0.292l0.292,1.166h0.292
			c0.097,0.389,0.194,0.777,0.292,1.166h0.292v0.584h0.292v0.584h0.292v0.582h0.292v0.584h0.292v0.584h0.292l0.292,1.166
			c0.194,0.098,0.389,0.195,0.583,0.293l0.292,1.166h0.292v0.584h0.292v0.582h0.292v0.584h0.292v0.584h0.292v0.582h0.292v0.584
			h0.292v0.875h0.292l0.292,1.166h0.292v0.584h0.292v0.875h0.292l0.292,1.166c0.194,0.098,0.389,0.195,0.583,0.293v0.582h0.292
			v0.584h0.292v0.584h0.292l0.292,1.166h0.292v0.584h0.292v0.582h0.292v0.584h0.292v0.584h0.292v0.582h0.292
			c0.098,0.389,0.195,0.779,0.292,1.168c0.194,0.096,0.389,0.193,0.583,0.291v0.584h0.292c0.097,0.291,0.194,0.582,0.292,0.875
			c0.194,0.096,0.389,0.193,0.583,0.291v0.584c1.167,0.875,2.334,1.75,3.5,2.625h0.875v0.291h0.584v0.291h0.582v0.293
			c0.39,0.096,0.778,0.193,1.168,0.291v0.291c0.291,0.098,0.583,0.195,0.875,0.293c0.097,0.193,0.193,0.389,0.291,0.582h0.584
			c0.097,0.195,0.193,0.389,0.291,0.584h0.584c0.193,0.291,0.389,0.584,0.583,0.875h0.583c0.389,0.486,0.777,0.973,1.167,1.459
			h0.583c0.292,0.389,0.584,0.777,0.875,1.166h0.584c0.291,0.389,0.583,0.777,0.875,1.166h0.583
			c0.194,0.293,0.389,0.584,0.583,0.875h0.584c0.097,0.195,0.194,0.389,0.291,0.584c0.389,0.098,0.778,0.195,1.167,0.291v0.293
			h2.625c0.681-0.584,1.361-1.168,2.042-1.75c2.041-4.182,4.084-8.361,6.125-12.543c0.389-1.846,0.777-3.693,1.166-5.541h0.292
			v-1.166h0.292v-0.875h0.291c0.271-0.764,0.619-6.172,0.292-7.293c-0.292-0.973-0.583-1.943-0.875-2.916
			c-0.194-0.098-0.389-0.195-0.583-0.291c-0.098-0.391-0.195-0.779-0.292-1.168c-0.194-0.098-0.389-0.193-0.583-0.291
			c-0.292-0.875-0.584-1.75-0.875-2.625h-0.292v-2.043h-0.292v-1.457h0.292v-2.625h0.292c0.097-1.168,0.194-2.334,0.291-3.5h0.292
			v-1.168h0.292v-1.166h0.291v-1.166h0.292v-1.168h0.292v-1.166h0.291c0.098-0.584,0.195-1.166,0.292-1.75h0.292v-0.584h0.291
			v-0.875h0.292v-0.875h0.292v-0.875h0.291v-0.875h0.292v-0.875h0.292v-0.875h0.291v-0.875h0.292v-0.582h0.292
			c0.097-0.584,0.194-1.168,0.291-1.75h0.292c0.097-0.389,0.194-0.779,0.292-1.168h0.291v-0.582h0.292v-0.875h0.292v-0.584h0.291
			v-0.875h0.292v-0.584h0.292c0.098-0.582,0.194-1.166,0.291-1.75h0.292v-0.582h0.292v-0.875h0.291
			c0.098-0.39,0.195-0.779,0.292-1.168h0.292v-0.875h0.291c0.098-0.389,0.195-0.777,0.292-1.166h0.292v-0.875h0.291v-0.584h0.292
			v-0.875h0.292c0.098-0.389,0.194-0.777,0.291-1.166h0.292v-0.875h0.292c0.098-0.389,0.194-0.777,0.291-1.167h0.292v-0.875h0.292
			v-0.583h0.291c0.098-0.389,0.195-0.777,0.292-1.167h0.292v-0.875h0.291v-0.583h0.292c0.098-0.584,0.194-1.167,0.292-1.75h0.291
			v-0.875h0.292v-0.875h0.292v-0.875h0.291v-0.875h0.293v-0.875h0.291v-1.167h0.291v-0.875h0.293v-1.167h0.291v-1.166
			c1.263-3.514,2.275-7.524,3.5-11.084v-1.166h0.291v-1.168h0.293v-1.457h0.291v-1.459h0.292v-2.041h0.292
			c0.008-1.039-0.047-1.975-0.292-2.625c-2.434,0.343-3.069,3.454-5.542,4.082v0.293c-0.389-0.098-0.777-0.195-1.167-0.293
			c0.034-2.307,0.077-4.354,0.583-6.125c0.098-1.457,0.195-2.916,0.293-4.375h0.291c0.194-0.875,0.389-1.75,0.584-2.625h0.291
			c0.194-0.583,0.389-1.166,0.584-1.75h0.291v-0.583h0.291c0.098-0.389,0.195-0.778,0.293-1.167l0.582-0.291
			c0.098-0.389,0.195-0.778,0.293-1.167c0.291-0.194,0.582-0.389,0.875-0.583v-0.584l0.582-0.291
			c0.098-0.389,0.195-0.778,0.293-1.167c0.193-0.097,0.389-0.194,0.583-0.292c0.681-1.555,1.36-3.111,2.042-4.666
			c0.193-0.098,0.389-0.195,0.583-0.292c0.097-0.389,0.194-0.778,0.292-1.167c0.193-0.097,0.389-0.194,0.583-0.291
			c0.194-0.584,0.389-1.167,0.583-1.75c0.195-0.098,0.389-0.195,0.584-0.292v-0.583h0.291v-0.584h0.292v-0.583h0.292v-0.583h0.291
			v-0.584c0.195-0.098,0.389-0.194,0.584-0.291c0.097-0.389,0.193-0.778,0.291-1.167c0.195-0.097,0.389-0.194,0.584-0.292
			c0.097-0.389,0.194-0.777,0.291-1.166c0.195-0.098,0.389-0.195,0.584-0.292v-0.875h0.291v-0.583h0.292l0.583-2.918h0.292v-0.582
			h0.292v-0.875h0.291v-0.584h0.292c0.097-0.584,0.194-1.166,0.292-1.75h0.291v-0.875h0.292v-0.875h0.292v-0.875h0.291v-0.875h0.292
			c0.097-0.777,0.194-1.556,0.292-2.334h0.291v-1.166h0.292v-1.167h0.292v-1.167h0.291v-1.166h0.292v-1.459h0.292
			c0.097-0.875,0.194-1.75,0.291-2.625h0.292v-1.458h0.292c0.097-0.777,0.194-1.556,0.291-2.333h0.292
			c0.097-0.681,0.194-1.361,0.292-2.042h0.291c0.098-0.681,0.195-1.361,0.292-2.042h0.292v-0.875h0.291
			c0.281-0.709,0.213-1.736,0.584-2.333c0.194-0.097,0.389-0.194,0.583-0.292v-0.583h0.292c0.194-0.292,0.389-0.583,0.583-0.875
			c0.875-0.292,1.75-0.583,2.625-0.875v-0.292l2.625-0.583v-0.292c0.583-0.194,1.167-0.389,1.75-0.583v-0.292h0.583
			c0.389-0.486,0.778-0.973,1.167-1.458c0.292-0.194,0.583-0.39,0.875-0.583c0.389-1.167,0.778-2.334,1.167-3.5v-1.458h0.291v-1.458
			h0.292v-0.875h0.292v-0.875h0.291v-0.875h0.292v-0.583h0.292v-0.875h0.291c0.098-0.389,0.195-0.778,0.292-1.167h0.292v-0.875
			h0.291v-0.583h0.292c0.097-0.681,0.194-1.361,0.292-2.042h0.291v-2.042h0.292v-2.042h0.292v-1.167h0.291v-1.167h0.292v-0.875
			h0.292c0.098-0.486,0.194-0.972,0.291-1.458h0.292v-0.583h0.292c0.194-0.875,0.389-1.75,0.583-2.625h0.292
			c0.194-1.167,0.389-2.333,0.583-3.5h0.292v-0.875h0.291v-0.875C336.827,178.485,337.122,177.212,337.06,174.638z M266.476,244.931
			h1.459v0.291c0.291,0.098,0.583,0.195,0.875,0.293c0.008,2.483-0.418,1.704-1.459,2.916c-1.395,0.009-1.848-0.172-2.625-0.584
			C264.762,245.654,265.523,246.04,266.476,244.931z M237.017,245.515h0.292c0.291-1.088,0.608-0.79,1.167-1.459
			c2.581,0.01,4.266,0.174,5.833,1.166l0.292,0.584h0.583c0.195,0.291,0.389,0.584,0.583,0.875h0.583
			c0.097,0.195,0.194,0.389,0.292,0.584c1.167,0.389,2.333,0.777,3.5,1.166h1.75v0.291h1.75c1.906,0.563,4.055,0.379,4.376,2.626
			h0.292c-0.098,0.485-0.195,0.972-0.292,1.458h-0.292c-0.408,1.686-2.342,2.489-3.791,3.209v0.291
			c-0.875,0.195-1.75,0.389-2.625,0.584v0.291c-0.973,0.098-1.946,0.195-2.918,0.292v-0.292c-2.273-0.111-3.106-1.83-3.792-3.5
			v-0.875h-0.292v-0.583h-0.292v-0.583c-0.972-0.584-1.944-1.167-2.917-1.75h-0.583v-0.292c-0.486-0.097-0.972-0.194-1.458-0.292
			c-0.097-0.194-0.194-0.389-0.292-0.584h-0.583C237.848,248.483,236.427,246.575,237.017,245.515z M282.518,269.723
			c-0.194,0.097-0.389,0.194-0.583,0.292c-0.195,0.291-0.389,0.583-0.584,0.875h-0.583v0.291h-0.875v0.292h-0.875v0.292h-1.167
			v0.291h-0.875v0.292h-0.875v0.292h-0.875v0.291h-0.875v0.292h-1.166v0.292h-1.167v0.291h-1.458v0.292h-1.459v0.292h-1.458v0.291
			h-2.625v0.292h-2.917v0.292c-2.041,0.098-4.084,0.194-6.125,0.291v-0.291c-2.139-0.098-4.278-0.195-6.417-0.292h-3.208v-0.292
			c-2.333-0.097-4.667-0.193-7-0.291v0.291c-0.486,0.098-0.973,0.195-1.458,0.292c-0.175,0.583,0.041,0.251-0.292,0.583
			c0.12,1.951,0.804,1.546,1.167,2.917c0.755,0.202,0.951,0.457,1.458,0.875v0.292c0.292,0.098,0.583,0.194,0.875,0.291
			c0.097,0.195,0.194,0.389,0.292,0.584h0.583c0.097,0.194,0.194,0.389,0.292,0.584h0.583c0.097,0.193,0.194,0.389,0.292,0.582
			h0.583c0.194,0.293,0.389,0.584,0.583,0.875c0.389,0.098,0.778,0.195,1.167,0.293c0.097,0.193,0.194,0.389,0.292,0.582h0.583
			v0.293c1.094,0.578,2.411,0.584,4.084,0.582h2.333v-0.291h1.459v-0.291c0.973-0.195,1.944-0.39,2.917-0.584v-0.291h0.875v-0.293
			h0.875v-0.291h0.875v-0.291h0.875v-0.293h0.875v-0.291h0.583v-0.291h0.584c2.475-1.56,4.333-4.738,8.458-2.918
			c0.177,0.441,0.731,1.383,0.583,2.042h-0.291v1.167h-0.292v0.584h-0.292c-0.097,0.582-0.194,1.166-0.291,1.75h-0.292v1.166h-0.292
			v1.166h-0.291v0.584h-0.292v0.584c-0.292,0.193-0.583,0.389-0.875,0.582c-0.389,0.486-0.778,0.973-1.167,1.459h-0.583
			c-0.097,0.195-0.194,0.389-0.292,0.584h-0.583v0.291c-0.583,0.195-1.167,0.389-1.75,0.584v0.291
			c-0.583,0.098-1.167,0.195-1.75,0.291v0.293h-1.458v0.291h-4.375c-1.07,0.098-2.14,0.195-3.209,0.291v-0.291h-5.25v-0.291
			c-2.042-0.098-4.084-0.195-6.125-0.293c-2.139-0.875-4.278-1.75-6.417-2.625c-0.097-0.193-0.194-0.389-0.292-0.582
			c-0.389-0.098-0.778-0.195-1.167-0.293c-0.195-0.291-0.389-0.582-0.583-0.875h-0.583c-0.194-0.291-0.389-0.582-0.583-0.875h-0.583
			c-0.292-0.389-0.583-0.777-0.875-1.166h-0.583c-0.486-0.584-0.972-1.166-1.458-1.75c-0.194-0.098-0.389-0.195-0.583-0.291v-0.584
			h-0.292l-0.292-1.166h-0.292v-0.876H227.1v-1.167h-0.292c-0.097-0.583-0.194-1.166-0.292-1.75h-0.292v-0.583h-0.292v-0.875h-0.292
			v-0.583h-0.292v-0.584c-0.194-0.097-0.389-0.193-0.583-0.291v-0.584c-0.194-0.097-0.389-0.193-0.583-0.291
			c-0.389-0.486-0.778-0.973-1.167-1.459h-0.583c-0.097-0.194-0.194-0.389-0.292-0.583h-0.583c-0.097-0.194-0.194-0.389-0.292-0.583
			h-0.583l-0.292-0.584h-0.583c-0.39-0.285-1.021-1.465-1.167-2.041c-0.457-0.496-0.325-1.964-0.292-2.917
			c0.583-0.681,1.167-1.361,1.75-2.042c0.583-0.097,1.167-0.194,1.75-0.291v-0.292c1.589-0.499,5.035,0.85,6.125,1.167h2.917v0.291
			h2.042v0.292h1.167v0.292h1.167c2.527,1.166,5.056,2.333,7.583,3.5h3.792v0.291h4.668v0.292h2.332v0.292h1.459v0.291h1.75v0.292
			c2.039,0.581,6.652-0.64,7.875-1.167v-0.291h0.584v-0.292h0.875v-0.292h0.583v-0.291h0.875v-0.292
			c4.472-0.194,8.944-0.389,13.417-0.583c0.288,0.358,1.04,0.938,1.458,1.166V269.723z M306.144,189.513
			c-0.578,0.505-0.247,0.677-0.584,1.167c-0.194,0.098-0.389,0.195-0.583,0.292c-0.486,0.583-0.973,1.167-1.458,1.75h-0.584
			c-0.098,0.194-0.194,0.389-0.291,0.583h-0.584c-0.098,0.194-0.194,0.389-0.291,0.583c-1.167,0.389-2.334,0.778-3.5,1.167
			c-1.18-0.127-2.706-0.609-3.5-1.167v-0.292c-0.749-0.618-1.277-1.471-2.334-1.75v-0.292c-0.681,0.195-1.361,0.389-2.042,0.583
			v0.292h-0.583c-0.098,0.195-0.194,0.389-0.292,0.583c-0.981,0.64-4.847,2.147-7,1.458v-0.292c-0.875-0.292-1.75-0.583-2.625-0.875
			c-0.097-0.195-0.194-0.389-0.292-0.583h-0.583c-0.389-0.486-0.778-0.972-1.167-1.458l-1.166-0.292v-0.292
			c-0.63-0.185-0.875,0.292-0.875,0.292h-1.167c-0.623,0.215-2.624,1.284-3.792,0.875v-0.292c-0.583-0.194-1.166-0.389-1.75-0.583
			v-0.292c-0.441-0.338-0.511-0.408-1.166-0.583c-0.172-0.652-0.244-0.732-0.584-1.167h-0.291v-0.583
			c-0.195-0.097-0.389-0.194-0.584-0.292v-0.875h-0.291c0.004-2.078,0.338-3.649,1.166-4.958c0.195-0.097,0.389-0.194,0.584-0.292
			v-0.583c0.389-0.292,0.777-0.583,1.166-0.875v-0.583c0.195-0.097,0.389-0.194,0.584-0.292c0.291-0.389,0.583-0.778,0.875-1.167
			h0.583c0.194-0.292,0.389-0.583,0.583-0.875h0.584c0.194-0.292,0.389-0.583,0.583-0.875h0.583c0.486-0.583,0.973-1.167,1.459-1.75
			c-0.098-0.875-0.195-1.75-0.292-2.625h-0.292c-0.097-0.389-0.194-0.778-0.291-1.167c0.367-0.311,0.305-0.516,0.583-0.875h0.292
			v-0.583c0.194-0.097,0.389-0.194,0.583-0.292c0.292-0.389,0.583-0.778,0.875-1.167h0.583c0.098-0.194,0.195-0.389,0.292-0.583
			h0.583v-0.292h0.875v-0.292h0.584v-0.292h1.166v-0.292h1.167v-0.292h2.333v-0.292h2.625v-0.292c1.167-0.097,2.334-0.194,3.5-0.292
			v-0.292h1.75v-0.292h1.75v-0.292h2.918c0.002-0.001,0.237-0.43,0.875-0.292v0.292h1.75v0.292h0.875v0.292h0.875v0.292l1.166,0.292
			v0.292c0.443,0.34,0.514,0.4,1.167,0.583c0.176,0.691,0.694,1.376,1.167,1.75c0.027,4.535-4.394,4.519-7.875,5.542
			c-2.14,0.097-4.278,0.194-6.418,0.292v0.292h-0.875v0.292h-0.875v0.292h-0.875v0.292h-0.583v0.292h-0.583
			c-0.689,0.369-1.141,0.961-2.042,1.167c-0.188,0.69-0.082,0.546-0.583,0.875c0.029,1.518,0.104,1.138,0.583,2.042
			c1.026,0.196,2.296,0.61,3.208,0.875h4.084v-0.292h2.334v0.292h2.625v0.292h0.875v0.292h1.166v0.292h0.584v0.292h0.875v0.292
			h0.583c0.097,0.194,0.194,0.389,0.292,0.583l1.166,0.292c0.973,0.778,1.945,1.556,2.917,2.333
			c0.491,0.691,0.541,1.506,1.167,2.042V189.513z M168.223,174.544c0.098,0.274,0.195,0.549,0.292,0.825
			c0.092-0.033,0.184-0.065,0.275-0.097c0.097,0.274,0.194,0.549,0.292,0.825c0.092-0.033,0.183-0.065,0.275-0.097
			c0.064,0.183,0.129,0.366,0.194,0.549c0.092-0.032,0.183-0.065,0.275-0.097c0.097,0.275,0.194,0.55,0.292,0.825
			c0.092-0.032,0.184-0.065,0.275-0.097c0.065,0.184,0.13,0.367,0.195,0.55c0.092-0.032,0.183-0.064,0.275-0.097
			c0.378,0.485,0.756,0.97,1.134,1.455c0.092-0.032,0.183-0.064,0.275-0.097c0.065,0.183,0.13,0.367,0.194,0.55
			c0.092-0.033,0.184-0.065,0.275-0.098c0.885,1.336,1.771,2.674,2.657,4.01c0.183-0.065,0.366-0.13,0.55-0.195
			c-0.095-0.92,0.3-1.538,0.418-2.313c-0.064-0.184-0.13-0.367-0.194-0.55c0.091-0.032,0.183-0.065,0.275-0.097
			c-0.012-0.614-0.022-1.229-0.034-1.844c0.091-0.033,0.183-0.065,0.274-0.098c-0.097-0.274-0.194-0.55-0.292-0.825
			c0.092-0.033,0.184-0.065,0.275-0.097c-0.065-0.184-0.129-0.367-0.194-0.55c0.091-0.032,0.183-0.065,0.274-0.097
			c-0.324-0.916-0.648-1.833-0.973-2.75c-0.092,0.033-0.183,0.065-0.275,0.097c-0.097-0.274-0.195-0.55-0.292-0.825
			c-0.215-0.027-0.432-0.053-0.647-0.08c-0.065-0.183-0.13-0.367-0.195-0.55c-1.829-0.796-3.658-1.593-5.487-2.39
			c-0.366,0.13-0.733,0.26-1.1,0.39c-0.161,0.46-0.417,0.608-0.533,1.117c-0.092,0.032-0.184,0.065-0.275,0.097
			c-0.147,0.557,0.535,2.212,0.973,2.75C168.04,174.608,168.131,174.576,168.223,174.544z M177.318,197.624
			c-0.187-3.842,0.761-6.509-0.85-11.147c-0.092,0.033-0.184,0.065-0.275,0.098c-0.033-0.092-0.065-0.184-0.097-0.275
			c-0.655,0.453-0.722,0.747-1.083,1.311c0.032,0.092,0.064,0.184,0.097,0.275c-0.455,0.578-1.454,0.815-2.377,1.151
			c-1.333-0.56-2.666-1.12-3.998-1.679c-0.033-0.092-0.065-0.183-0.098-0.275c-0.458,0.162-0.916,0.324-1.375,0.486
			c-0.056,0.306-0.533,1.117-0.533,1.117c0.649,1.833,1.297,3.666,1.946,5.499c-0.389,0.95,0.936,3.52,1.379,4.771
			c0.736,2.079,1.302,4.854,2.141,6.049c0.421,1.191,0.843,2.383,1.265,3.574c0.092-0.032,0.183-0.065,0.275-0.097
			c0.254,0.426,0.507,0.852,0.762,1.277c0.575-0.076,1.598,0.076,2.296-0.503c-0.032-0.091-0.064-0.183-0.097-0.275
			c0.334-0.221,0.669-0.443,1.003-0.664c0.027-0.215,0.053-0.432,0.08-0.647c0.183-0.065,0.367-0.13,0.55-0.195
			c-0.033-0.092-0.065-0.183-0.097-0.275c0.783-0.928,1.649-1.331,1.518-2.703C180.375,202.869,177.426,199.835,177.318,197.624z"/>
	</g>
</g>
</svg>
